<?xml version="1.0" encoding="UTF-8" standalone="no"?>
<!DOCTYPE svg PUBLIC "-//W3C//DTD SVG 1.1//EN"
 "http://www.w3.org/Graphics/SVG/1.1/DTD/svg11.dtd">
<!-- Generated by graphviz version 2.48.0 (0)
 -->
<!-- Pages: 1 -->
<svg width="511pt" height="334pt"
 viewBox="0.00 0.00 511.00 334.00" xmlns="http://www.w3.org/2000/svg" xmlns:xlink="http://www.w3.org/1999/xlink">
<g id="graph0" class="graph" transform="scale(1 1) rotate(0) translate(4 330)">
<polygon fill="white" stroke="transparent" points="-4,4 -4,-330 507,-330 507,4 -4,4"/>
<text text-anchor="middle" x="251.5" y="-7.8" font-family="Times,serif" font-size="14.00" fill="gray">rcviz nodes=9</text>
<!-- 140088493687360 -->
<g id="node1" class="node">
<title>140088493687360</title>
<path fill="#eeeeee" stroke="transparent" d="M185,-197C185,-197 248,-197 248,-197 254,-197 260,-203 260,-209 260,-209 260,-227 260,-227 260,-233 254,-239 248,-239 248,-239 185,-239 185,-239 179,-239 173,-233 173,-227 173,-227 173,-209 173,-209 173,-203 179,-197 185,-197"/>
<text text-anchor="start" x="177.5" y="-224.6" font-family="Times,serif" font-size="13.00">fibonacci(3)</text>
<text text-anchor="start" x="198.5" y="-204.6" font-family="Times,serif" font-size="13.00">ret: 2</text>
<polygon fill="gray" stroke="gray" points="173.5,-218 173.5,-218 260.5,-218 260.5,-218 173.5,-218"/>
</g>
<!-- 140088493692992 -->
<g id="node2" class="node">
<title>140088493692992</title>
<path fill="#eeeeee" stroke="transparent" d="M308,-197C308,-197 371,-197 371,-197 377,-197 383,-203 383,-209 383,-209 383,-227 383,-227 383,-233 377,-239 371,-239 371,-239 308,-239 308,-239 302,-239 296,-233 296,-227 296,-227 296,-209 296,-209 296,-203 302,-197 308,-197"/>
<text text-anchor="start" x="300.5" y="-224.6" font-family="Times,serif" font-size="13.00">fibonacci(2)</text>
<text text-anchor="start" x="321.5" y="-204.6" font-family="Times,serif" font-size="13.00">ret: 1</text>
<polygon fill="gray" stroke="gray" points="296.5,-218 296.5,-218 383.5,-218 383.5,-218 296.5,-218"/>
</g>
<!-- 140088493687360&#45;&gt;140088493692992 -->
<!-- 140088493686848 -->
<g id="node3" class="node">
<title>140088493686848</title>
<path fill="#eeeeee" stroke="transparent" d="M73,-110C73,-110 136,-110 136,-110 142,-110 148,-116 148,-122 148,-122 148,-140 148,-140 148,-146 142,-152 136,-152 136,-152 73,-152 73,-152 67,-152 61,-146 61,-140 61,-140 61,-122 61,-122 61,-116 67,-110 73,-110"/>
<text text-anchor="start" x="65.5" y="-137.6" font-family="Times,serif" font-size="13.00">fibonacci(2)</text>
<text text-anchor="start" x="86.5" y="-117.6" font-family="Times,serif" font-size="13.00">ret: 1</text>
<polygon fill="gray" stroke="gray" points="61.5,-131 61.5,-131 148.5,-131 148.5,-131 61.5,-131"/>
</g>
<!-- 140088493687360&#45;&gt;140088493686848 -->
<g id="edge5" class="edge">
<title>140088493687360&#45;&gt;140088493686848</title>
<path fill="none" stroke="#2c2c2c" d="M189.96,-196.86C174.86,-185.4 155.78,-170.92 139.48,-158.54"/>
<polygon fill="#2c2c2c" stroke="#2c2c2c" points="141.32,-155.55 131.24,-152.29 137.09,-161.13 141.32,-155.55"/>
<text text-anchor="middle" x="177.5" y="-172.6" font-family="Times,serif" font-size="8.00" fill="#999999">2 (⇑3)</text>
</g>
<!-- 140088493692480 -->
<g id="node4" class="node">
<title>140088493692480</title>
<path fill="#eeeeee" stroke="transparent" d="M196,-110C196,-110 259,-110 259,-110 265,-110 271,-116 271,-122 271,-122 271,-140 271,-140 271,-146 265,-152 259,-152 259,-152 196,-152 196,-152 190,-152 184,-146 184,-140 184,-140 184,-122 184,-122 184,-116 190,-110 196,-110"/>
<text text-anchor="start" x="188.5" y="-137.6" font-family="Times,serif" font-size="13.00">fibonacci(1)</text>
<text text-anchor="start" x="209.5" y="-117.6" font-family="Times,serif" font-size="13.00">ret: 1</text>
<polygon fill="gray" stroke="gray" points="184.5,-131 184.5,-131 271.5,-131 271.5,-131 184.5,-131"/>
</g>
<!-- 140088493687360&#45;&gt;140088493692480 -->
<g id="edge6" class="edge">
<title>140088493687360&#45;&gt;140088493692480</title>
<path fill="none" stroke="#6f6f6f" d="M219.11,-196.86C220.44,-186.56 222.09,-173.81 223.57,-162.35"/>
<polygon fill="#6f6f6f" stroke="#6f6f6f" points="227.06,-162.66 224.87,-152.29 220.12,-161.76 227.06,-162.66"/>
<text text-anchor="middle" x="235.5" y="-172.6" font-family="Times,serif" font-size="8.00" fill="#999999">5 (⇑4)</text>
</g>
<!-- 140088493693504 -->
<g id="node7" class="node">
<title>140088493693504</title>
<path fill="#eeeeee" stroke="transparent" d="M305,-110C305,-110 368,-110 368,-110 374,-110 380,-116 380,-122 380,-122 380,-140 380,-140 380,-146 374,-152 368,-152 368,-152 305,-152 305,-152 299,-152 293,-146 293,-140 293,-140 293,-122 293,-122 293,-116 299,-110 305,-110"/>
<text text-anchor="start" x="297.5" y="-137.6" font-family="Times,serif" font-size="13.00">fibonacci(1)</text>
<text text-anchor="start" x="318.5" y="-117.6" font-family="Times,serif" font-size="13.00">ret: 1</text>
<polygon fill="gray" stroke="gray" points="293.5,-131 293.5,-131 380.5,-131 380.5,-131 293.5,-131"/>
</g>
<!-- 140088493692992&#45;&gt;140088493693504 -->
<g id="edge7" class="edge">
<title>140088493692992&#45;&gt;140088493693504</title>
<path fill="none" stroke="#9b9b9b" d="M338.79,-196.86C338.43,-186.56 337.98,-173.81 337.57,-162.35"/>
<polygon fill="#9b9b9b" stroke="#9b9b9b" points="341.07,-162.16 337.22,-152.29 334.07,-162.41 341.07,-162.16"/>
<text text-anchor="middle" x="351.5" y="-172.6" font-family="Times,serif" font-size="8.00" fill="#999999">7 (⇑6)</text>
</g>
<!-- 140088493694016 -->
<g id="node8" class="node">
<title>140088493694016</title>
<path fill="#eeeeee" stroke="transparent" d="M428,-110C428,-110 491,-110 491,-110 497,-110 503,-116 503,-122 503,-122 503,-140 503,-140 503,-146 497,-152 491,-152 491,-152 428,-152 428,-152 422,-152 416,-146 416,-140 416,-140 416,-122 416,-122 416,-116 422,-110 428,-110"/>
<text text-anchor="start" x="420.5" y="-137.6" font-family="Times,serif" font-size="13.00">fibonacci(0)</text>
<text text-anchor="start" x="441.5" y="-117.6" font-family="Times,serif" font-size="13.00">ret: 0</text>
<polygon fill="gray" stroke="gray" points="416.5,-131 416.5,-131 503.5,-131 503.5,-131 416.5,-131"/>
</g>
<!-- 140088493692992&#45;&gt;140088493694016 -->
<g id="edge8" class="edge">
<title>140088493692992&#45;&gt;140088493694016</title>
<path fill="none" stroke="#b1b1b1" d="M367.94,-196.86C384.26,-185.3 404.93,-170.65 422.51,-158.2"/>
<polygon fill="#b1b1b1" stroke="#b1b1b1" points="424.71,-160.93 430.85,-152.29 420.67,-155.22 424.71,-160.93"/>
<text text-anchor="middle" x="415.5" y="-172.6" font-family="Times,serif" font-size="8.00" fill="#999999">8 (⇑7)</text>
</g>
<!-- 140088493686848&#45;&gt;140088493692480 -->
<!-- 140088493690432 -->
<g id="node5" class="node">
<title>140088493690432</title>
<path fill="#eeeeee" stroke="transparent" d="M12,-23C12,-23 75,-23 75,-23 81,-23 87,-29 87,-35 87,-35 87,-53 87,-53 87,-59 81,-65 75,-65 75,-65 12,-65 12,-65 6,-65 0,-59 0,-53 0,-53 0,-35 0,-35 0,-29 6,-23 12,-23"/>
<text text-anchor="start" x="4.5" y="-50.6" font-family="Times,serif" font-size="13.00">fibonacci(1)</text>
<text text-anchor="start" x="25.5" y="-30.6" font-family="Times,serif" font-size="13.00">ret: 1</text>
<polygon fill="gray" stroke="gray" points="0.5,-44 0.5,-44 87.5,-44 87.5,-44 0.5,-44"/>
</g>
<!-- 140088493686848&#45;&gt;140088493690432 -->
<g id="edge9" class="edge">
<title>140088493686848&#45;&gt;140088493690432</title>
<path fill="none" stroke="#424242" d="M90.04,-109.86C82.28,-99.03 72.57,-85.5 64.03,-73.61"/>
<polygon fill="#424242" stroke="#424242" points="66.74,-71.38 58.06,-65.29 61.05,-75.46 66.74,-71.38"/>
<text text-anchor="middle" x="89.5" y="-85.6" font-family="Times,serif" font-size="8.00" fill="#999999">3 (⇑1)</text>
</g>
<!-- 140088493691968 -->
<g id="node6" class="node">
<title>140088493691968</title>
<path fill="#eeeeee" stroke="transparent" d="M135,-23C135,-23 198,-23 198,-23 204,-23 210,-29 210,-35 210,-35 210,-53 210,-53 210,-59 204,-65 198,-65 198,-65 135,-65 135,-65 129,-65 123,-59 123,-53 123,-53 123,-35 123,-35 123,-29 129,-23 135,-23"/>
<text text-anchor="start" x="127.5" y="-50.6" font-family="Times,serif" font-size="13.00">fibonacci(0)</text>
<text text-anchor="start" x="148.5" y="-30.6" font-family="Times,serif" font-size="13.00">ret: 0</text>
<polygon fill="gray" stroke="gray" points="123.5,-44 123.5,-44 210.5,-44 210.5,-44 123.5,-44"/>
</g>
<!-- 140088493686848&#45;&gt;140088493691968 -->
<g id="edge10" class="edge">
<title>140088493686848&#45;&gt;140088493691968</title>
<path fill="none" stroke="#585858" d="M119.19,-109.86C127.09,-99.03 136.96,-85.5 145.63,-73.61"/>
<polygon fill="#585858" stroke="#585858" points="148.63,-75.44 151.7,-65.29 142.98,-71.31 148.63,-75.44"/>
<text text-anchor="middle" x="150.5" y="-85.6" font-family="Times,serif" font-size="8.00" fill="#999999">4 (⇑2)</text>
</g>
<!-- 140088493690432&#45;&gt;140088493691968 -->
<!-- 140088493693504&#45;&gt;140088493694016 -->
<!-- 140088496192576 -->
<g id="node9" class="node">
<title>140088496192576</title>
<path fill="#eeeeee" stroke="transparent" d="M246,-284C246,-284 309,-284 309,-284 315,-284 321,-290 321,-296 321,-296 321,-314 321,-314 321,-320 315,-326 309,-326 309,-326 246,-326 246,-326 240,-326 234,-320 234,-314 234,-314 234,-296 234,-296 234,-290 240,-284 246,-284"/>
<text text-anchor="start" x="238.5" y="-311.6" font-family="Times,serif" font-size="13.00">fibonacci(4)</text>
<text text-anchor="start" x="259.5" y="-291.6" font-family="Times,serif" font-size="13.00">ret: 3</text>
<polygon fill="gray" stroke="gray" points="234.5,-305 234.5,-305 321.5,-305 321.5,-305 234.5,-305"/>
</g>
<!-- 140088496192576&#45;&gt;140088493687360 -->
<g id="edge11" class="edge">
<title>140088496192576&#45;&gt;140088493687360</title>
<path fill="none" stroke="#161616" d="M263.04,-283.86C255.28,-273.03 245.57,-259.5 237.03,-247.61"/>
<polygon fill="#161616" stroke="#161616" points="239.74,-245.38 231.06,-239.29 234.05,-249.46 239.74,-245.38"/>
<text text-anchor="middle" x="262.5" y="-259.6" font-family="Times,serif" font-size="8.00" fill="#999999">1 (⇑5)</text>
</g>
<!-- 140088496192576&#45;&gt;140088493692992 -->
<g id="edge12" class="edge">
<title>140088496192576&#45;&gt;140088493692992</title>
<path fill="none" stroke="#858585" d="M292.19,-283.86C300.09,-273.03 309.96,-259.5 318.63,-247.61"/>
<polygon fill="#858585" stroke="#858585" points="321.63,-249.44 324.7,-239.29 315.98,-245.31 321.63,-249.44"/>
<text text-anchor="middle" x="323.5" y="-259.6" font-family="Times,serif" font-size="8.00" fill="#999999">6 (⇑8)</text>
</g>
</g>
</svg>
